<?xml version="1.0"?>
<svg xmlns="http://www.w3.org/2000/svg" xmlns:xlink="http://www.w3.org/1999/xlink" xmlns:svgjs="http://svgjs.com/svgjs" version="1.1" width="512" height="512" x="0" y="0" viewBox="0 0 52 61" style="enable-background:new 0 0 512 512" xml:space="preserve" class=""><g><g xmlns="http://www.w3.org/2000/svg" id="008---Male-Customer-Advisor" fill="none"><g id="Layer_4" transform="translate(1 1)"><path id="Shape" d="m33 35.23v6.77s-1 4-8 4-8-4-8-4v-6.77c.0343697.0357757.0711203.0691853.11.1 3.16 2.84 3.16 5.67 6.31 5.67h3.16c3.15 0 3.15-2.83 6.31-5.67.0388797-.0308147.0756303-.0642243.11-.1z" fill="#cad9fc" data-original="#cad9fc" style=""/><path id="Shape" d="m35.93 20c-.0186931-.2021663-.0521152-.4026989-.1-.6-.92-4.08-2.74-5.19-2.74-5.19-3.31-1.58-11.37-1.22-14.18-1.04-.702347.0238499-1.371431.3050076-1.88.79-1.3044221 1.4790049-2.2369329 3.2480328-2.72 5.16-.08197.2930192-.1487259.5900829-.2.89-.1134703.6570895-.1370196 1.3265616-.07 1.99.24 2.48.71 3.46.71 5.24 0 .23-.01.46-.01.69-.01.71-.06 1.39-.06 2.07-.0851089 2.0098367.7729547 3.9441782 2.32 5.23.0343697.0357757.0711203.0691853.11.1 3.16 2.84 3.16 5.67 6.31 5.67h3.16c3.15 0 3.15-2.83 6.31-5.67.0388797-.0308147.0756303-.0642243.11-.1 1.5470453-1.2858218 2.4051089-3.2201633 2.32-5.23 0-.68-.05-1.36-.06-2.07 0-.23-.01-.46-.01-.69 0-1.82.49-2.81.74-5.4.0549916-.6134886.0348424-1.2313973-.06-1.84zm-7.93 15c0 .5522847-.4477153 1-1 1h-4c-.5522847 0-1-.4477153-1-1v-2c0-.5522847.4477153-1 1-1h4c.5522847 0 1 .4477153 1 1z" fill="#e8edfc" data-original="#e8edfc" style="" class=""/><path id="Shape" d="m35.93 20c-.0186931-.2021663-.0521152-.4026989-.1-.6-.92-4.08-2.74-5.19-2.74-5.19-2.357-1.125-7.114-1.265-10.677-1.189 2.9.068 5.942.361 7.677 1.189 0 0 1.82 1.11 2.74 5.19.0478848.1973011.0813069.3978337.1.6.0948424.6086027.1149916 1.2265114.06 1.84-.25 2.59-.74 3.58-.74 5.4 0 .23.01.46.01.69.01.71.06 1.39.06 2.07.0851089 2.0098367-.7729547 3.9441782-2.32 5.23-.0343697.0357757-.0711203.0691853-.11.1-3.16 2.84-3.16 5.67-6.31 5.67h3c3.15 0 3.15-2.83 6.31-5.67.0388797-.0308147.0756303-.0642243.11-.1 1.5470453-1.2858218 2.4051089-3.2201633 2.32-5.23 0-.68-.05-1.36-.06-2.07 0-.23-.01-.46-.01-.69 0-1.82.49-2.81.74-5.4.0549916-.6134886.0348424-1.2313973-.06-1.84z" fill="#cad9fc" data-original="#cad9fc" style=""/><path id="Shape" d="m49.99 53v3.99c.0070495.2664925-.0943299.5244411-.28094.7148212-.1866102.19038-.4424798.2968975-.70906.2951788h-48c-.26658015.0017187-.52244979-.1047988-.70905996-.2951788-.18661018-.1903801-.28798951-.4483287-.28094004-.7148212v-3.99c.3-6.1 3.43-7 3.43-7l13.56-4s1 4 8 4 8-4 8-4l13.56 4s3.13.9 3.43 7z" fill="#e8edfc" data-original="#e8edfc" style="" class=""/><path id="Shape" d="m46.56 46-13.56-4c-.0866243.2736327-.2065215.5355929-.357.78l10.917 3.22s3.13.9 3.43 7v3.99c.0070495.2664925-.0943299.5244411-.28094.7148212-.1866102.19038-.4424798.2968975-.70906.2951788h3c.2665802.0017187.5224498-.1047988.70906-.2951788.1866101-.1903801.2879895-.4483287.28094-.7148212v-3.99c-.3-6.1-3.43-7-3.43-7z" fill="#cad9fc" data-original="#cad9fc" style=""/><g fill="#a4c2f7"><path id="Shape" d="m41 22v6c-.0032948 1.1032019-.8967981 1.9967052-2 2h-3.68c0-.68-.05-1.36-.06-2.07 0-.23-.01-.46-.01-.69 0-1.82.49-2.81.74-5.4.0549916-.6134886.0348424-1.2313973-.06-1.84h3.07c1.1032019.0032948 1.9967052.8967981 2 2z" fill="#a4c2f7" data-original="#a4c2f7" style=""/><path id="Shape" d="m39 20h-3c1.1032019.0032948 1.9967052.8967981 2 2v6c-.0032948 1.1032019-.8967981 1.9967052-2 2h3c1.1032019-.0032948 1.9967052-.8967981 2-2v-6c-.0032948-1.1032019-.8967981-1.9967052-2-2z" fill="#a4c2f7" data-original="#a4c2f7" style=""/><path id="Shape" d="m14.75 27.24c0 .23-.01.46-.01.69-.01.71-.06 1.39-.06 2.07h-3.68c-1.10320187-.0032948-1.9967052-.8967981-2-2v-6c.0032948-1.1032019.89679813-1.9967052 2-2h3.07l.04.01c-.1134703.6570895-.1370196 1.3265616-.07 1.99.24 2.48.71 3.46.71 5.24z" fill="#a4c2f7" data-original="#a4c2f7" style=""/><rect id="Rectangle-path" height="4" rx="1" width="6" x="22" y="32" fill="#a4c2f7" data-original="#a4c2f7" style=""/><path id="Shape" d="m39 15v5h-3.07c-.0186931-.2021663-.0521152-.4026989-.1-.6-.92-4.08-2.74-5.19-2.74-5.19-3.31-1.58-11.37-1.22-14.18-1.04-.702347.0238499-1.371431.3050076-1.88.79-1.3044221 1.4790049-2.2369329 3.2480328-2.72 5.16-.08197.2930192-.1487259.5900829-.2.89l-.04-.01h-3.07v-5s2-11 14-11 14 11 14 11z" fill="#a4c2f7" data-original="#a4c2f7" style=""/></g><path id="Shape" d="m25 4c-.521 0-1.016.028-1.5.067 10.663.874 12.5 10.933 12.5 10.933v5h3v-5s-2-11-14-11z" fill="#7facfa" data-original="#7facfa" style=""/><path id="Shape" d="m39 13v2s-2-11-14-11-14 11-14 11v-2c0-7.73 6.27-13 14-13s14 5.27 14 13z" fill="#e8edfc" data-original="#e8edfc" style="" class=""/></g><g id="Layer_3" fill="#fff" transform="translate(1 1)"><path id="Shape" d="m30.727 4.214c-.14-.022-.277-.048-.421-.067.143.02.282.044.421.067z" fill="#ffffff" data-original="#ffffff" style=""/><path id="Shape" d="m15.155 7.613c2.1464016-4.38197724 6.4903505-7.26468935 11.362-7.54-8.24-.756-15.517 4.566-15.517 12.927v2c.6365877-2.8142232 2.0806161-5.38150062 4.155-7.387z" fill="#ffffff" data-original="#ffffff" style=""/><path id="Shape" d="m27.307 4.022c-.226.009-.455.016-.674.032.217-.02.449-.022.674-.032z" fill="#ffffff" data-original="#ffffff" style=""/><path id="Shape" d="m14 15.56c0 4.927-.031 4.43.07 4.43-.9853702.0685044-1.9741894.071845-2.96.01-.162-.041-.11.534-.11-4.44 0 0 1.83-10.59 12.5-11.5.5039871.03775017 1.0050225.10789512 1.5.21-9.34 1.71-11 11.29-11 11.29z" fill="#ffffff" data-original="#ffffff" style=""/><path id="Shape" d="m13.81 30h-3c-1.0486443-.0597315-1.85489458-.9506158-1.81-2v-6c-.04489458-1.0493842.7613557-1.9402685 1.81-2h3c-1.0486443.0597315-1.8548946.9506158-1.81 2v6c-.0448946 1.0493842.7613557 1.9402685 1.81 2z" fill="#ffffff" data-original="#ffffff" style=""/><path id="Shape" d="m18 43c-11.88 3.043-10.111 2.574-11.56 3 0 0-3.12.9-3.42 7l-.02 3.99c-.00458735.2675114.09896906.525555.28721241.7156808s.44524383.2962446.71278759.2943192h-3c-.26754376.0019254-.52454424-.1041934-.71278759-.2943192s-.29179976-.4481694-.28721241-.7156808l.02-3.99c.3-6.1 3.42-7 3.42-7 1.4-.41-.6.177 13.56-4z" fill="#ffffff" data-original="#ffffff" style=""/></g><path id="Rectangle-path" d="m2.001 58h8v2h-8z" fill=""/><g fill="#428dff"><circle id="Oval" cx="6.001" cy="59" r="1" fill="#2196f3" data-original="#428dff" style="" class=""/><path id="Shape" d="m3.005 59c0-.5522847-.44771525-1-1-1v-3.951c.256-5.2 2.629-6.06 2.716-6.09l12.724-3.754c.796 1.395 2.966 3.795 8.555 3.795s7.759-2.4 8.551-3.8l12.711 3.75c.1.034 2.473.9 2.728 6.045l.01 4.005h-40c-.55228475 0-1 .4477153-1 1s.44771525 1 1 1c41.232 0 40 .1 40 0 .531938.0019225 1.0423676-.2098437 1.4167166-.587765.374349-.3779214.5812579-.8903393.5742834-1.422235v-4.039c-.332-6.737-4-7.868-4.147-7.91l-12.844-3.788v-5.6c1.3130312-1.2122965 2.124631-2.872241 2.275-4.653h2.725c1.6568542 0 3-1.3431458 3-3v-6c-.0052514-1.2667854-.8056491-2.3937454-2-2.816v-6.184c0-7.981-6.448-14-15-14s-15 6.019-15 14v6.184c-1.19435087.4222546-1.99474861 1.5492146-2 2.816v6c.00525139 1.2667854.80564913 2.3937454 2 2.816v1.184c0 2.209139 1.790861 4 4 4h2v5.253l-12.835 3.786c-.156.044-3.822 1.175-4.155 7.961v3.973c-.039 2.157 2.995 2.736 2.995 1.027zm9.995-42.9c1.2693006-6.0996538 6.7758771-10.3778402 13-10.1 6.2178068-.25803626 11.7130713 4.0113615 13 10.1v3.9h-1.236c-1-4.215-2.932-5.509-3.153-5.644-2.783-1.67-11.493-1.394-14.756-1.185-.9471996.0355606-1.847864.4198298-2.529 1.079-1.4661116 1.6369572-2.5018909 3.6129796-3.014 5.75h-1.312zm6 26.751v-4.076c1.636 2.125 2.406 4.225 5.422 4.225 4.533 0 5.347.416 7.705-3.013.265-.385.553-.794.874-1.212v4.067c-1.608 4.258-12.427 4.219-14.001.004zm14.22-7.259c-3.12 2.801-3.211 5.408-5.643 5.408-4.319 0-4.29.42-6.056-2.146-.381-.554-.831-1.189-1.389-1.854h2.146c.3544126.6167513 1.0106732.997855 1.722 1h4c1.1045695 0 2-.8954305 2-2v-2c0-1.1045695-.8954305-2-2-2h-4c-1.1045695 0-2 .8954305-2 2v1h-3.8c-1.6-1.739-1.56-3.276-1.49-5.17.146-3.95-.351-3.626-.678-6.934-.023142-2.663396.9432902-5.2405484 2.712-7.232.3367174-.3113825.775502-.4891721 1.234-.5 3.252-.209 10.624-.456 13.61.91.229.178 1.544 1.319 2.271 4.541.2430523 1.6096551.1497557 3.2522192-.274 4.824-1.018 5.299 1.024 7.1-2.366 10.148zm-9.22.408v-2h4v2zm17-7c0 .5522847-.4477153 1-1 1h-2.7c-.1383555-1.3977381-.054313-2.8085718.249-4.18.2822034-1.2542813.4333479-2.5344851.451-3.82h2c.5522847 0 1 .4477153 1 1zm-2.676-19.016c-2.144-2.984-5.896-5.984-12.324-5.984s-10.18 3-12.324 5.984c3.724-10.679 20.924-10.664 24.648 0zm-27.324 13.016c0-.5522847.4477153-1 1-1h2.013c.0142306 1.2909002.1626961 2.5768192.443 3.837.2991165 1.3662882.3814561 2.7711236.244 4.163h-2.7c-.5522847 0-1-.4477153-1-1zm2 10v-1h1.725c.0835316 1.0612428.413253 2.0884124.963 3h-.688c-1.1045695 0-2-.8954305-2-2z" fill="#2196f3" data-original="#428dff" style="" class=""/></g></g></g></svg>
